# xmcd CD database file
#
# Track frame offsets:
#	180
#	15511
#	31118
#	43639
#	58504
#	74048
#	88696
#	101859
#	112371
#	128997
#	137517
#	153429
#	173108
#	186000
#	199857
#
# Disc length: 2833 seconds
#
# Revision: 0
# Processed by: cddbd v1.4PL0 Copyright (c) Steve Scherf et al.
# Submitted via: CDex 1.50Beta7
#
DISCID=d40b0f0f
DTITLE=Glenn Miller - Season's Greatings
DYEAR=1900
DGENRE=Jazz
TTITLE0=Moonlight serenade
TTITLE1=Sunrise serenade
TTITLE2=Pin Ball Paul
TTITLE3=Pennsylvania 6-5000
TTITLE4=Chattanooga-Cho Cho
TTITLE5=Strings of pearls
TTITLE6=In the mood
TTITLE7=Sun valley jump
TTITLE8=Tuxeco junction
TTITLE9=Blues in my heart
TTITLE10=Beguin beguine
TTITLE11=St. Louis blues march
TTITLE12=Everybody loves my baby
TTITLE13=Song of the volga boatmen
TTITLE14=It must be Jelly
EXTD=
EXTT0=
EXTT1=
EXTT2=
EXTT3=
EXTT4=
EXTT5=
EXTT6=
EXTT7=
EXTT8=
EXTT9=
EXTT10=
EXTT11=
EXTT12=
EXTT13=
EXTT14=
PLAYORDER=
